<?xml version="1.0" encoding="utf-8"?>
<svg version="1.1" xmlns="http://www.w3.org/2000/svg" xmlns:xlink="http://www.w3.org/1999/xlink" xml:space="preserve"
	x="0px" y="0px" viewBox="0 0 25 25" id="IconYoutube">
	<path style="fill:#D22222;" d="M24.1,7.1c-0.5-1.8-1.3-2.5-2.9-2.8C20.3,4.2,16,4,12.5,4C9,4,4.7,4.2,3.8,4.3
		c-1.6,0.3-2.4,1-2.9,2.8c-0.2,0.6-0.4,4-0.4,5.3v0.3c0,1.3,0.2,4.7,0.4,5.3c0.5,1.8,1.3,2.5,2.9,2.8C4.7,20.8,9,21,12.5,21l0,0
		c3.5,0,7.8-0.2,8.7-0.3c1.6-0.3,2.4-1,2.9-2.8c0.2-0.6,0.4-4,0.4-5.3v-0.3C24.5,11.1,24.3,7.7,24.1,7.1z M10,15.9V9.1l6.4,3.3
		L10,15.9z"/>
</svg>
