<?xml version="1.0" encoding="utf-8"?>
<svg version="1.1" xmlns="http://www.w3.org/2000/svg" xmlns:xlink="http://www.w3.org/1999/xlink" xml:space="preserve"
	x="0px" y="0px" viewBox="0 0 25 25" id="IconReddit">
	<path style="fill:#FF4500;" d="M24.5,12.3c0-1.5-1.2-2.7-2.7-2.7c-0.7,0-1.3,0.3-1.8,0.7c-1.8-1.2-4.1-1.9-6.8-2
		l1.4-4.4l3.8,0.9c0,1.2,1,2.2,2.3,2.2c1.2,0,2.3-1,2.3-2.3s-1-2.3-2.3-2.3c-0.9,0-1.7,0.6-2.1,1.4l-4.2-1c-0.2-0.1-0.5,0.1-0.6,0.3
		l-1.6,5.1c-2.8,0-5.3,0.8-7.2,2C4.5,9.8,3.9,9.5,3.2,9.5c-1.5,0-2.7,1.2-2.7,2.7c0,1,0.5,1.8,1.3,2.3c0,0.3-0.1,0.5-0.1,0.8
		c0,4,4.8,7.2,10.7,7.2s10.7-3.2,10.7-7.2c0-0.3,0-0.5-0.1-0.8C23.9,14.2,24.5,13.3,24.5,12.3z M20.6,3.4C21.4,3.4,22,4,22,4.7
		S21.4,6,20.6,6c-0.7,0-1.3-0.6-1.3-1.3S19.9,3.4,20.6,3.4z M2.1,13.6c-0.4-0.3-0.6-0.8-0.6-1.4c0-1,0.8-1.8,1.8-1.8
		c0.4,0,0.7,0.1,1,0.3C3.2,11.6,2.5,12.6,2.1,13.6z M7.2,14.1c0-0.9,0.8-1.7,1.7-1.7c0.9,0,1.7,0.8,1.7,1.7s-0.7,1.7-1.7,1.7
		C8,15.7,7.2,15,7.2,14.1z M16.4,18.8c-0.8,0.8-2.1,1.2-3.9,1.2c0,0,0,0,0,0c0,0,0,0,0,0c-1.8,0-3.1-0.4-3.9-1.2
		c-0.2-0.2-0.2-0.5,0-0.7c0.2-0.2,0.5-0.2,0.7,0c0.6,0.6,1.7,0.9,3.2,0.9c0,0,0,0,0,0c0,0,0,0,0,0c1.5,0,2.6-0.3,3.2-0.9
		c0.2-0.2,0.5-0.2,0.7,0C16.6,18.3,16.6,18.6,16.4,18.8z M16.1,15.7c-0.9,0-1.7-0.7-1.7-1.7s0.8-1.7,1.7-1.7c0.9,0,1.7,0.8,1.7,1.7
		S17,15.7,16.1,15.7z M22.9,13.7c-0.4-1.1-1.1-2-2.2-2.9c0.3-0.2,0.7-0.3,1.1-0.3c1,0,1.8,0.8,1.8,1.8
		C23.6,12.9,23.3,13.4,22.9,13.7z"/>
</svg>
