<?xml version="1.0" encoding="utf-8"?>
<svg version="1.1" xmlns="http://www.w3.org/2000/svg" xmlns:xlink="http://www.w3.org/1999/xlink" xml:space="preserve"
	x="0px" y="0px" viewBox="0 0 25 25" id="IconGooglep">
	<path style="fill:#DD4B39;" d="M13.9,14.7c-0.7-0.5-1.3-1.1-2-1.6c-0.8-0.7-0.8-1.3-0.1-2.1
		c0.4-0.4,0.9-0.8,1.3-1.2c1.4-1.3,1.8-2.9,1.3-4.7c-0.2-0.9-0.8-1.5-1.5-2.3C14.1,2.9,15,2.4,16,1.5c-2.1,0-3.9,0-5.7,0
		c-0.4,0-0.8,0-1.1,0C7.8,1.6,6.5,1.9,5.3,2.6c-1.7,1-2.5,3.1-2.2,5.2c0.3,1.8,1.8,3.2,3.7,3.6c0.6,0.1,1.2,0.1,1.9,0.1
		c-0.5,1.1-0.1,2,0.6,2.9c-0.5,0-0.8,0.1-1.1,0.1c-1.8,0.2-3.6,0.5-5.1,1.8c-2.2,1.9-1.9,4.8,0.6,6.2c2.7,1.5,7.4,1.1,9.8-0.8
		C15.8,20.1,16.6,16.9,13.9,14.7z M7.3,9.8C6.1,8.7,5.7,7.2,5.7,5.9c0-1.3,0.2-2.3,1.1-2.9C8,2.3,9.3,2.4,10.3,3.4
		c1.3,1.3,1.7,3,1.7,4.8c0,1.2-0.7,2-1.8,2.4C9.1,11,8.1,10.7,7.3,9.8z M11.7,21.8c-2,0.8-4,0.6-5.9-0.4c-1.1-0.6-1.7-1.5-1.6-2.8
		c0.1-1.2,0.8-2,1.9-2.5c1.3-0.6,2.8-0.8,4.3-0.7c0.8,0.6,1.6,1.1,2.3,1.7C14.3,18.7,13.9,21,11.7,21.8z"/>
	<polygon style="fill:#DD4B39;" points="23.4,11.3 20.6,11.3 20.6,8.5 19,8.5 19,11.3 16.2,11.3 16.2,12.9 19,12.9 
		19,15.7 20.6,15.7 20.6,12.9 23.4,12.9 "/>
</svg>
