<?xml version="1.0" encoding="utf-8"?>
<svg version="1.1" xmlns="http://www.w3.org/2000/svg" xmlns:xlink="http://www.w3.org/1999/xlink" xml:space="preserve"
	x="0px" y="0px" viewBox="0 0 25 25" id="IconPatreon">
	<path style="fill:#FE5900;" d="M12.9,24.5l-5.9,0l0-12c0-0.3,0-0.6,0.1-0.9c0.4-2.9,3.2-5,6.1-4.7
		c3.1,0.4,5.3,3.2,4.8,6.3c-0.6,3.8-4.9,5.9-8.2,3.9c-0.1,0-0.2-0.1-0.2-0.1c0,1.3,0,2.7,0,4c0.1,0,0.1,0.1,0.2,0.1
		c1,0.3,2.1,0.5,3.1,0.4c2.5-0.1,4.6-1.1,6.3-2.9c2-2.2,2.8-4.8,2.3-7.7c-0.8-5.1-5.7-8.4-10.7-7.5c-4.3,0.8-7.5,4.6-7.5,9
		c0,3.9,0,12,0,12H0.5c0,0,0-8.3,0-12.6c0-0.6,0.1-1.3,0.2-1.5c0.2-1,0.5-1.9,0.9-2.9c0.5-1.1,1.1-2,1.8-2.9c1.1-1.3,2.4-2.3,3.9-3
		c1.3-0.6,2.6-1,4-1.1c1.8-0.1,3.5,0,5.1,0.6c1.5,0.5,2.9,1.3,4.1,2.4C22.2,5.1,23.3,6.9,24,9c0.2,0.8,0.4,1.6,0.5,2.5
		c0.1,1.6,0,3.2-0.6,4.8c-0.6,1.8-1.5,3.3-2.9,4.7c-1.8,1.8-3.9,2.9-6.4,3.4C14.2,24.4,13.3,24.5,12.9,24.5z"/>
</svg>
