<?xml version="1.0" encoding="utf-8"?>
<svg version="1.1" xmlns="http://www.w3.org/2000/svg" xmlns:xlink="http://www.w3.org/1999/xlink" xml:space="preserve"
	x="0px" y="0px" viewBox="0 0 25 25" id="MenuIcon">
<symbol viewBox="-12.5 -2.5 25 5" id="MenuIconBar">
	<path style="fill:#D44219;" d="M12.5-1c0-0.8-0.7-1.5-1.5-1.5h-22c-0.8,0-1.5,0.7-1.5,1.5v2c0,0.8,0.7,1.5,1.5,1.5h22c0.8,0,1.5-0.7,1.5-1.5V-1z"/>
</symbol>
<use xlink:href="#MenuIconBar" x="-12.5" y="-2.5" width="25" height="5" transform="matrix(1 0 0 -1 12.5 12.5)" />
<use xlink:href="#MenuIconBar" x="-12.5" y="-2.5" width="25" height="5" transform="matrix(1 0 0 -1 12.5 3.5)" />
<use xlink:href="#MenuIconBar" x="-12.5" y="-2.5" width="25" height="5" transform="matrix(1 0 0 -1 12.5 21.5)" />
</svg>
